<?xml version="1.0" encoding="UTF-8"?>
<svg id="uuid-6faebcfa-c00c-4ceb-87d6-778a0a48a4e3" data-name="Layer 2" xmlns="http://www.w3.org/2000/svg" viewBox="0 0 573 572">
  <path d="M532.86,572H40.14c-22.14,0-40.14-17.99-40.14-39.67V39.67C0,17.76,17.76,0,39.67,0h493.19c22.14,0,40.14,17.99,40.14,39.67v492.66c-.46,21.68-18.45,39.67-40.14,39.67Z" style="fill: #221f20; stroke-width: 0px;"/>
  <path d="M522.35,285.99c0,50.25-17.01,96.54-45.63,133.39-5.51,7.09-11.44,13.84-17.76,20.19-.01.02-.01.04-.01.04-39.46,39.63-94.03,64.15-154.35,64.15H123.57c-10.37,0-19.92-2.84-28-7.71-20.35-12.23-31.6-37.24-24.19-62.2l8.99-30.34c.02-.08.03-.13.05-.2l21.7-73.17h0s20.91-70.57,20.91-70.57h126.68l-21.74,70.57-.02.02-14.44,46.93h91.08c30.49,0,57.55-15.08,74.07-38.15.07-.09.13-.16.18-.24.05-.07.13-.16.23-.29,4.35-6.17,7.97-12.92,10.66-20.08,4.06-10.57,6.18-22.08,5.94-34.1-.02-.74-.03-1.5-.07-2.24.03-.04.03-.05,0-.09-1.43-31.79-19.46-59.12-45.47-74.28-12.12-7.08-25.98-11.5-40.68-12.49-2.11-.15-4.24-.22-6.37-.22H123.04l-33.2-58.1-39.18-68.57h253.94c50.41,0,96.8,17.12,133.72,45.89,7.13,5.54,13.89,11.53,20.27,17.9,39.39,39.39,63.76,93.83,63.76,153.96Z" style="fill: #fff; stroke-width: 0px;"/>
</svg>